<?xml version="1.0" encoding="UTF-8" standalone="no"?>
<svg
   width="27.63238mm"
   height="37.33107mm"
   viewBox="0 0 27.63238 37.33107"
   version="1.1"
   id="svg1"
   xmlns="http://www.w3.org/2000/svg"
   xmlns:svg="http://www.w3.org/2000/svg">
  <defs
     id="defs1" />
      <linearGradient id="MyGradient" x1="0%" y1="0%" x2="0%" y2="100%">
      <stop offset="0%" style="stop-color: var(--gradient-start)" />
      <stop offset="100%" style="stop-color: var(--gradient-end)" />
      </linearGradient>
  <g
     id="layer1"
     transform="translate(-91.28125,-129.91042)">
    <path
       fill="red"
       id="text2-8-9-6-3-6"

       d="m 99.81406,129.91042 c -1.09141,0 -2.14974,0.17364 -3.175,0.5209 -1.02527,0.34727 -1.93476,0.87643 -2.72851,1.5875 -0.79374,0.72759 -1.43042,1.64537 -1.90997,2.75332 -0.47955,1.12448 -0.71933,2.44739 -0.71933,3.96875 0,1.48828 0.28112,2.8112 0.84336,3.96875 0.34416,0.74047 0.78396,1.42576 1.29914,2.06757 -1.13885,2.46038 -1.51753,4.91446 -1.13016,7.36286 0.47881,2.94458 2.00307,5.38078 4.57285,7.30808 l -2.39469,4.08761 0.0196,0.0119 -2.01952,3.44579 h 3.59668 l 3.47008,-5.92522 c 1.1695,0.56292 2.33784,0.94085 3.50572,1.13429 0.0741,0.40731 0.1776,0.7983 0.31678,1.16944 0.28112,0.79375 0.72761,1.47174 1.33945,2.03399 0.61192,0.57867 1.38906,1.02525 2.33165,1.33945 0.94256,0.33072 2.05879,0.4961 3.34863,0.49609 1.09141,1e-5 2.14974,-0.1819 3.175,-0.5457 1.02526,-0.34726 1.93476,-0.88471 2.72851,-1.6123 0.79376,-0.72761 1.43041,-1.64538 1.90996,-2.75333 0.47956,-1.10792 0.71934,-2.41432 0.71934,-3.91914 0,-1.48827 -0.28112,-2.8112 -0.84336,-3.96875 -0.57878,-1.14101 -1.36427,-2.17454 -2.35644,-3.10058 -0.9922,-0.92602 -2.1496,-1.76967 -3.47266,-2.53008 -1.33946,-0.74414 -2.76159,-1.46348 -4.26641,-2.15801 l 3.14968,-5.38572 c 1.64917,1.10239 2.89695,2.5804 3.74293,4.43436 l 2.15697,-3.68091 c -0.98729,-1.51632 -2.34912,-2.80221 -4.08399,-3.85817 l 4.60902,-7.88065 h -3.54707 l -1.16168,1.98489 -0.0367,-0.0212 -2.67064,4.5589 c -0.9637,-0.34152 -1.91852,-0.57226 -2.86391,-0.69247 -0.0265,-0.84248 -0.15933,-1.62255 -0.41083,-2.33267 -0.29766,-0.79374 -0.75241,-1.48001 -1.36426,-2.05879 -0.61184,-0.56225 -1.38905,-1.00872 -2.33164,-1.33945 -0.94257,-0.31419 -2.05879,-0.47129 -3.34863,-0.47129 z m 0.0744,3.175 c 0.41339,0 0.83506,0.0827 1.26503,0.24805 0.41339,0.16538 0.78548,0.39688 1.11622,0.69453 0.33072,0.29766 0.60358,0.64491 0.81855,1.04179 0.19054,0.36642 0.2915,0.76036 0.31316,1.17874 -0.73228,0.14785 -1.45903,0.36567 -2.17971,0.65371 -1.65647,0.66386 -3.13926,1.66332 -4.45089,2.99362 -0.0521,-0.0874 -0.11015,-0.17318 -0.15658,-0.262 -0.38034,-0.72761 -0.57051,-1.55443 -0.57051,-2.48047 0,-0.69453 0.11573,-1.29813 0.34726,-1.81075 0.21498,-0.51262 0.50438,-0.93429 0.86817,-1.26503 0.34727,-0.33072 0.75241,-0.57879 1.21543,-0.74414 0.46302,-0.16536 0.93431,-0.24805 1.41387,-0.24805 z m 6.21409,6.57221 c 0.71619,0.003 1.44117,0.10752 2.17506,0.31471 l -3.17552,5.42034 c -1.50142,-0.67002 -2.81954,-1.30028 -3.9486,-1.88929 -0.51584,-0.26914 -0.98534,-0.54215 -1.42006,-0.81804 0.86175,-0.93671 1.81386,-1.67132 2.86184,-2.19005 1.14452,-0.56321 2.31362,-0.84228 3.50728,-0.83767 z m -9.31933,8.09201 c 0.34453,0.22827 0.69922,0.45126 1.07125,0.66508 1.2996,0.75671 2.70601,1.47225 4.21835,2.14715 l -3.33778,5.69733 c -1.4579,-1.37167 -2.25828,-3.04819 -2.40089,-5.02915 -0.0816,-1.13381 0.0732,-2.29445 0.44907,-3.48041 z m 8.1902,4.03851 c 1.52134,0.64493 2.85256,1.27329 3.99355,1.88516 1.14102,0.61186 2.10014,1.24024 2.87734,1.88516 0.76068,0.64491 1.33945,1.33945 1.73633,2.08359 0.38034,0.74415 0.57051,1.57922 0.57051,2.50527 0,0.64492 -0.10748,1.20716 -0.32246,1.68672 -0.21498,0.4961 -0.50435,0.90951 -0.86816,1.24024 -0.3638,0.33074 -0.77722,0.57877 -1.24024,0.74414 -0.46303,0.16535 -0.93431,0.24804 -1.41387,0.24804 -0.41341,-1e-5 -0.82682,-0.0827 -1.24023,-0.24804 -0.42994,-0.16539 -0.81028,-0.3969 -1.14102,-0.69454 -0.33072,-0.29764 -0.60358,-0.65318 -0.81855,-1.0666 -0.21498,-0.39687 -0.32246,-0.83509 -0.32246,-1.31465 0,-0.41339 0.20621,-1.42007 0.30541,-1.76733 -0.16346,0.0196 -0.29396,0.0339 -0.43667,0.0512 -1.86766,0.14092 -3.65461,-0.17374 -5.35936,-0.9555 z" />
  </g>
</svg>
